<mxfile host="Electron" agent="Mozilla/5.0 (Windows NT 10.0; Win64; x64) AppleWebKit/537.36 (KHTML, like Gecko) draw.io/24.7.8 Chrome/128.0.6613.36 Electron/32.0.1 Safari/537.36" version="24.7.8" pages="2">
  <diagram name="Circom" id="SJkBbC3pLOdOJR-NQYqG">
    <mxGraphModel dx="1016" dy="1441" grid="1" gridSize="10" guides="1" tooltips="1" connect="1" arrows="1" fold="1" page="1" pageScale="1" pageWidth="850" pageHeight="1100" math="0" shadow="0">
      <root>
        <mxCell id="0" />
        <mxCell id="1" parent="0" />
        <mxCell id="QPwPSfcIhf77dq-oIVA--1" style="rounded=0;orthogonalLoop=1;jettySize=auto;html=1;" parent="1" source="QPwPSfcIhf77dq-oIVA--3" target="QPwPSfcIhf77dq-oIVA--5" edge="1">
          <mxGeometry relative="1" as="geometry" />
        </mxCell>
        <mxCell id="QPwPSfcIhf77dq-oIVA--2" style="rounded=0;orthogonalLoop=1;jettySize=auto;html=1;" parent="1" source="QPwPSfcIhf77dq-oIVA--3" target="QPwPSfcIhf77dq-oIVA--8" edge="1">
          <mxGeometry relative="1" as="geometry" />
        </mxCell>
        <mxCell id="QPwPSfcIhf77dq-oIVA--3" value="Circuit" style="rounded=0;whiteSpace=wrap;html=1;fillColor=#d5e8d4;strokeColor=#82b366;verticalAlign=top;" parent="1" diagramCategory="general" diagramName="Rectangle" vertex="1">
          <mxGeometry x="320" y="180" width="120" height="100" as="geometry" />
        </mxCell>
        <mxCell id="QPwPSfcIhf77dq-oIVA--4" style="edgeStyle=orthogonalEdgeStyle;rounded=0;orthogonalLoop=1;jettySize=auto;html=1;" parent="1" source="QPwPSfcIhf77dq-oIVA--5" target="QPwPSfcIhf77dq-oIVA--10" edge="1">
          <mxGeometry relative="1" as="geometry" />
        </mxCell>
        <mxCell id="QPwPSfcIhf77dq-oIVA--5" value="Computation" style="rounded=0;whiteSpace=wrap;html=1;fillColor=#dae8fc;strokeColor=#6c8ebf;verticalAlign=top;" parent="1" vertex="1" diagramCategory="general" diagramName="Rectangle">
          <mxGeometry x="200" y="320" width="120" height="80" as="geometry" />
        </mxCell>
        <mxCell id="QPwPSfcIhf77dq-oIVA--6" value="" style="rounded=0;orthogonalLoop=1;jettySize=auto;html=1;" parent="1" source="QPwPSfcIhf77dq-oIVA--8" target="QPwPSfcIhf77dq-oIVA--13" edge="1">
          <mxGeometry relative="1" as="geometry">
            <mxPoint x="590" y="350" as="targetPoint" />
          </mxGeometry>
        </mxCell>
        <mxCell id="QPwPSfcIhf77dq-oIVA--7" style="rounded=0;orthogonalLoop=1;jettySize=auto;html=1;" parent="1" source="QPwPSfcIhf77dq-oIVA--8" target="QPwPSfcIhf77dq-oIVA--14" edge="1">
          <mxGeometry relative="1" as="geometry" />
        </mxCell>
        <mxCell id="QPwPSfcIhf77dq-oIVA--8" value="Constraint" style="rounded=0;whiteSpace=wrap;html=1;fillColor=#fff2cc;strokeColor=#d6b656;verticalAlign=top;" parent="1" vertex="1" diagramCategory="general" diagramName="Rectangle">
          <mxGeometry x="440" y="320" width="120" height="80" as="geometry" />
        </mxCell>
        <mxCell id="QPwPSfcIhf77dq-oIVA--9" style="edgeStyle=orthogonalEdgeStyle;rounded=0;orthogonalLoop=1;jettySize=auto;html=1;" parent="1" source="QPwPSfcIhf77dq-oIVA--10" target="QPwPSfcIhf77dq-oIVA--8" edge="1">
          <mxGeometry relative="1" as="geometry" />
        </mxCell>
        <mxCell id="QPwPSfcIhf77dq-oIVA--10" value="Witness" style="whiteSpace=wrap;html=1;shape=mxgraph.basic.document;fillColor=#f5f5f5;fontColor=#333333;strokeColor=#666666;" parent="1" vertex="1">
          <mxGeometry x="350" y="330" width="60" height="60" as="geometry" />
        </mxCell>
        <mxCell id="QPwPSfcIhf77dq-oIVA--11" style="edgeStyle=orthogonalEdgeStyle;rounded=0;orthogonalLoop=1;jettySize=auto;html=1;" parent="1" source="QPwPSfcIhf77dq-oIVA--12" target="QPwPSfcIhf77dq-oIVA--5" edge="1">
          <mxGeometry relative="1" as="geometry" />
        </mxCell>
        <mxCell id="QPwPSfcIhf77dq-oIVA--12" value="Inputs" style="text;html=1;align=center;verticalAlign=middle;resizable=0;points=[];autosize=1;strokeColor=none;fillColor=none;" parent="1" vertex="1">
          <mxGeometry x="110" y="345" width="60" height="30" as="geometry" />
        </mxCell>
        <mxCell id="QPwPSfcIhf77dq-oIVA--13" value="❌" style="text;whiteSpace=wrap;align=center;verticalAlign=middle;" parent="1" vertex="1">
          <mxGeometry x="590" y="330" width="20" height="20" as="geometry" />
        </mxCell>
        <mxCell id="QPwPSfcIhf77dq-oIVA--14" value="✅" style="text;whiteSpace=wrap;align=center;verticalAlign=middle;" parent="1" vertex="1">
          <mxGeometry x="590" y="370" width="20" height="20" as="geometry" />
        </mxCell>
        <mxCell id="QPwPSfcIhf77dq-oIVA--15" value="&lt;div style=&quot;color: rgb(0, 0, 0); font-family: Menlo, Monaco, &amp;quot;Courier New&amp;quot;, monospace; font-weight: normal; font-size: 12px; line-height: 18px;&quot;&gt;&lt;div style=&quot;&quot;&gt;&lt;span style=&quot;color: rgb(0, 0, 0);&quot;&gt;o1 &lt;/span&gt;&lt;span style=&quot;color: rgb(255, 0, 0);&quot;&gt;&amp;lt;--&lt;/span&gt;&lt;span style=&quot;color: rgb(0, 0, 0);&quot;&gt; a &lt;/span&gt;&lt;span style=&quot;color: rgb(255, 0, 0);&quot;&gt;/&lt;/span&gt;&lt;span style=&quot;color: rgb(0, 0, 0);&quot;&gt; b;&lt;/span&gt;&lt;/div&gt;&lt;div style=&quot;&quot;&gt;&lt;span style=&quot;color: #000000;&quot;&gt;o1 &lt;/span&gt;&lt;span style=&quot;color: #ff0000;&quot;&gt;*&lt;/span&gt;&lt;span style=&quot;color: #000000;&quot;&gt; b &lt;/span&gt;&lt;span style=&quot;color: #ff0000;&quot;&gt;===&lt;/span&gt;&lt;span style=&quot;color: #000000;&quot;&gt; a;&lt;/span&gt;&lt;/div&gt;&lt;div style=&quot;&quot;&gt;&lt;span style=&quot;color: rgb(0, 0, 0);&quot;&gt;o2 &lt;/span&gt;&lt;span style=&quot;color: rgb(255, 0, 0);&quot;&gt;&amp;lt;==&lt;/span&gt;&lt;span style=&quot;color: rgb(0, 0, 0);&quot;&gt; a &lt;/span&gt;&lt;span style=&quot;color: rgb(255, 0, 0);&quot;&gt;+&lt;/span&gt;&lt;span style=&quot;color: rgb(0, 0, 0);&quot;&gt; b;&lt;/span&gt;&lt;/div&gt;&lt;/div&gt;" style="text;whiteSpace=wrap;html=1;align=center;" parent="1" vertex="1">
          <mxGeometry x="330" y="210" width="100" height="70" as="geometry" />
        </mxCell>
        <mxCell id="QPwPSfcIhf77dq-oIVA--16" value="&lt;div style=&quot;color: rgb(0, 0, 0); font-family: Menlo, Monaco, &amp;quot;Courier New&amp;quot;, monospace; font-weight: normal; font-size: 12px; line-height: 18px;&quot;&gt;&lt;div style=&quot;&quot;&gt;&lt;span style=&quot;color: rgb(0, 0, 0);&quot;&gt;o1 &lt;/span&gt;&lt;span style=&quot;color: rgb(255, 0, 0);&quot;&gt;&amp;lt;--&lt;/span&gt;&lt;span style=&quot;color: rgb(0, 0, 0);&quot;&gt; a &lt;/span&gt;&lt;span style=&quot;color: rgb(255, 0, 0);&quot;&gt;/&lt;/span&gt;&lt;span style=&quot;color: rgb(0, 0, 0);&quot;&gt; b;&lt;/span&gt;&lt;/div&gt;&lt;div style=&quot;&quot;&gt;&lt;span style=&quot;color: rgb(0, 0, 0);&quot;&gt;o2 &lt;/span&gt;&lt;span style=&quot;color: rgb(255, 0, 0);&quot;&gt;&amp;lt;--&lt;/span&gt;&lt;span style=&quot;color: rgb(0, 0, 0);&quot;&gt; a &lt;/span&gt;&lt;span style=&quot;color: rgb(255, 0, 0);&quot;&gt;+&lt;/span&gt;&lt;span style=&quot;color: rgb(0, 0, 0);&quot;&gt; b;&lt;/span&gt;&lt;/div&gt;&lt;/div&gt;" style="text;whiteSpace=wrap;html=1;align=center;verticalAlign=middle;" parent="1" vertex="1">
          <mxGeometry x="210" y="340" width="100" height="50" as="geometry" />
        </mxCell>
        <mxCell id="QPwPSfcIhf77dq-oIVA--17" value="&lt;div style=&quot;color: rgb(0, 0, 0); font-family: Menlo, Monaco, &amp;quot;Courier New&amp;quot;, monospace; font-weight: normal; font-size: 12px; line-height: 18px;&quot;&gt;&lt;div style=&quot;&quot;&gt;&lt;span style=&quot;color: rgb(0, 0, 0);&quot;&gt;o1 &lt;/span&gt;&lt;span style=&quot;color: rgb(255, 0, 0);&quot;&gt;*&lt;/span&gt;&lt;span style=&quot;color: rgb(0, 0, 0);&quot;&gt; b &lt;/span&gt;&lt;span style=&quot;color: rgb(255, 0, 0);&quot;&gt;===&lt;/span&gt;&lt;span style=&quot;color: rgb(0, 0, 0);&quot;&gt; a;&lt;/span&gt;&lt;/div&gt;&lt;div style=&quot;&quot;&gt;&lt;span style=&quot;color: rgb(0, 0, 0);&quot;&gt;o2 &lt;/span&gt;&lt;span style=&quot;color: rgb(255, 0, 0);&quot;&gt;===&lt;/span&gt;&lt;span style=&quot;color: rgb(0, 0, 0);&quot;&gt; a &lt;/span&gt;&lt;span style=&quot;color: rgb(255, 0, 0);&quot;&gt;+&lt;/span&gt;&lt;span style=&quot;color: rgb(0, 0, 0);&quot;&gt; b;&lt;/span&gt;&lt;/div&gt;&lt;/div&gt;" style="text;whiteSpace=wrap;html=1;align=center;verticalAlign=middle;" parent="1" vertex="1">
          <mxGeometry x="450" y="340" width="100" height="50" as="geometry" />
        </mxCell>
      </root>
    </mxGraphModel>
  </diagram>
  <diagram name="Plonk Script" id="erxvB4CIaKITpxgfguMx">
    <mxGraphModel dx="581" dy="823" grid="1" gridSize="10" guides="1" tooltips="1" connect="1" arrows="1" fold="1" page="1" pageScale="1" pageWidth="850" pageHeight="1100" math="0" shadow="0">
      <root>
        <mxCell id="zXVIBMq-GNmkxpPJvBTb-0" />
        <mxCell id="zXVIBMq-GNmkxpPJvBTb-1" parent="zXVIBMq-GNmkxpPJvBTb-0" />
        <mxCell id="zXVIBMq-GNmkxpPJvBTb-2" style="rounded=0;orthogonalLoop=1;jettySize=auto;html=1;" parent="zXVIBMq-GNmkxpPJvBTb-1" source="zXVIBMq-GNmkxpPJvBTb-4" target="zXVIBMq-GNmkxpPJvBTb-6" edge="1">
          <mxGeometry relative="1" as="geometry" />
        </mxCell>
        <mxCell id="zXVIBMq-GNmkxpPJvBTb-3" style="rounded=0;orthogonalLoop=1;jettySize=auto;html=1;" parent="zXVIBMq-GNmkxpPJvBTb-1" source="zXVIBMq-GNmkxpPJvBTb-4" target="zXVIBMq-GNmkxpPJvBTb-9" edge="1">
          <mxGeometry relative="1" as="geometry" />
        </mxCell>
        <mxCell id="zXVIBMq-GNmkxpPJvBTb-4" value="Circuit" style="rounded=0;whiteSpace=wrap;html=1;fillColor=#d5e8d4;strokeColor=#82b366;verticalAlign=top;" parent="zXVIBMq-GNmkxpPJvBTb-1" diagramCategory="general" diagramName="Rectangle" vertex="1">
          <mxGeometry x="300" y="170" width="160" height="110" as="geometry" />
        </mxCell>
        <mxCell id="zXVIBMq-GNmkxpPJvBTb-5" style="rounded=0;orthogonalLoop=1;jettySize=auto;html=1;" parent="zXVIBMq-GNmkxpPJvBTb-1" source="zXVIBMq-GNmkxpPJvBTb-6" target="zXVIBMq-GNmkxpPJvBTb-11" edge="1">
          <mxGeometry relative="1" as="geometry" />
        </mxCell>
        <mxCell id="zXVIBMq-GNmkxpPJvBTb-6" value="Computation" style="rounded=0;whiteSpace=wrap;html=1;fillColor=#dae8fc;strokeColor=#6c8ebf;verticalAlign=top;" parent="zXVIBMq-GNmkxpPJvBTb-1" vertex="1" diagramCategory="general" diagramName="Rectangle">
          <mxGeometry x="180" y="320" width="140" height="80" as="geometry" />
        </mxCell>
        <mxCell id="zXVIBMq-GNmkxpPJvBTb-7" value="" style="rounded=0;orthogonalLoop=1;jettySize=auto;html=1;" parent="zXVIBMq-GNmkxpPJvBTb-1" source="zXVIBMq-GNmkxpPJvBTb-9" target="zXVIBMq-GNmkxpPJvBTb-14" edge="1">
          <mxGeometry relative="1" as="geometry">
            <mxPoint x="590" y="350" as="targetPoint" />
          </mxGeometry>
        </mxCell>
        <mxCell id="zXVIBMq-GNmkxpPJvBTb-8" style="rounded=0;orthogonalLoop=1;jettySize=auto;html=1;" parent="zXVIBMq-GNmkxpPJvBTb-1" source="zXVIBMq-GNmkxpPJvBTb-9" target="zXVIBMq-GNmkxpPJvBTb-15" edge="1">
          <mxGeometry relative="1" as="geometry" />
        </mxCell>
        <mxCell id="zXVIBMq-GNmkxpPJvBTb-9" value="Constraint" style="rounded=0;whiteSpace=wrap;html=1;fillColor=#fff2cc;strokeColor=#d6b656;verticalAlign=top;" parent="zXVIBMq-GNmkxpPJvBTb-1" vertex="1" diagramCategory="general" diagramName="Rectangle">
          <mxGeometry x="440" y="320" width="140" height="180" as="geometry" />
        </mxCell>
        <mxCell id="zXVIBMq-GNmkxpPJvBTb-10" style="rounded=0;orthogonalLoop=1;jettySize=auto;html=1;" parent="zXVIBMq-GNmkxpPJvBTb-1" source="zXVIBMq-GNmkxpPJvBTb-11" target="zXVIBMq-GNmkxpPJvBTb-9" edge="1">
          <mxGeometry relative="1" as="geometry" />
        </mxCell>
        <mxCell id="zXVIBMq-GNmkxpPJvBTb-11" value="Witness" style="whiteSpace=wrap;html=1;shape=mxgraph.basic.document;fillColor=#f5f5f5;fontColor=#333333;strokeColor=#666666;" parent="zXVIBMq-GNmkxpPJvBTb-1" vertex="1">
          <mxGeometry x="350" y="360" width="60" height="60" as="geometry" />
        </mxCell>
        <mxCell id="zXVIBMq-GNmkxpPJvBTb-12" style="edgeStyle=orthogonalEdgeStyle;rounded=0;orthogonalLoop=1;jettySize=auto;html=1;" parent="zXVIBMq-GNmkxpPJvBTb-1" source="zXVIBMq-GNmkxpPJvBTb-13" target="zXVIBMq-GNmkxpPJvBTb-6" edge="1">
          <mxGeometry relative="1" as="geometry" />
        </mxCell>
        <mxCell id="zXVIBMq-GNmkxpPJvBTb-13" value="Inputs" style="text;html=1;align=center;verticalAlign=middle;resizable=0;points=[];autosize=1;strokeColor=none;fillColor=none;" parent="zXVIBMq-GNmkxpPJvBTb-1" vertex="1">
          <mxGeometry x="90" y="345" width="60" height="30" as="geometry" />
        </mxCell>
        <mxCell id="zXVIBMq-GNmkxpPJvBTb-14" value="❌" style="text;whiteSpace=wrap;align=center;verticalAlign=middle;" parent="zXVIBMq-GNmkxpPJvBTb-1" vertex="1">
          <mxGeometry x="610" y="375" width="20" height="20" as="geometry" />
        </mxCell>
        <mxCell id="zXVIBMq-GNmkxpPJvBTb-15" value="✅" style="text;whiteSpace=wrap;align=center;verticalAlign=middle;" parent="zXVIBMq-GNmkxpPJvBTb-1" vertex="1">
          <mxGeometry x="610" y="415" width="20" height="20" as="geometry" />
        </mxCell>
        <mxCell id="zXVIBMq-GNmkxpPJvBTb-16" value="&lt;div style=&quot;font-family: Menlo, Monaco, &amp;quot;Courier New&amp;quot;, monospace; font-weight: normal; font-size: 12px; line-height: 18px;&quot;&gt;&lt;div style=&quot;color: rgb(0, 0, 0);&quot;&gt;&lt;span style=&quot;color: rgb(0, 0, 0);&quot;&gt;h[2]&amp;nbsp;&lt;/span&gt;&lt;span style=&quot;color: rgb(255, 0, 0);&quot;&gt;&amp;lt;--&lt;/span&gt;&lt;span style=&quot;color: rgb(0, 0, 0);&quot;&gt; a &lt;/span&gt;&lt;span style=&quot;color: rgb(255, 0, 0);&quot;&gt;/&lt;/span&gt;&lt;span style=&quot;color: rgb(0, 0, 0);&quot;&gt; b;&lt;/span&gt;&lt;/div&gt;&lt;div style=&quot;&quot;&gt;&lt;span style=&quot;color: rgb(0, 0, 0);&quot;&gt;a&amp;nbsp;&lt;/span&gt;&lt;span style=&quot;color: rgb(255, 0, 0);&quot;&gt;===&lt;/span&gt;&lt;span style=&quot;color: rgb(0, 0, 0);&quot;&gt; b &lt;/span&gt;&lt;font color=&quot;#ff0000&quot;&gt;*&lt;/font&gt;&lt;span style=&quot;color: rgb(0, 0, 0);&quot;&gt; h[2];&lt;/span&gt;&lt;/div&gt;&lt;div style=&quot;color: rgb(0, 0, 0);&quot;&gt;h[3]&amp;nbsp;&lt;span style=&quot;color: rgb(255, 0, 0);&quot;&gt;&amp;lt;==&lt;/span&gt;&amp;nbsp;a&amp;nbsp;&lt;span style=&quot;color: rgb(255, 0, 0);&quot;&gt;+&lt;/span&gt;&amp;nbsp;b;&lt;span style=&quot;color: #000000;&quot;&gt;&lt;br&gt;&lt;/span&gt;&lt;/div&gt;&lt;div style=&quot;color: rgb(0, 0, 0);&quot;&gt;&lt;span style=&quot;color: rgb(0, 0, 0);&quot;&gt;o&amp;nbsp;&lt;/span&gt;&lt;span style=&quot;color: rgb(255, 0, 0);&quot;&gt;&amp;lt;==&lt;/span&gt;&lt;span style=&quot;color: rgb(0, 0, 0);&quot;&gt;&amp;nbsp;h[3]&lt;/span&gt;&lt;span style=&quot;color: rgb(0, 0, 0);&quot;&gt;;&lt;/span&gt;&lt;/div&gt;&lt;/div&gt;" style="text;whiteSpace=wrap;html=1;align=center;" parent="zXVIBMq-GNmkxpPJvBTb-1" vertex="1">
          <mxGeometry x="320" y="190" width="120" height="80" as="geometry" />
        </mxCell>
        <mxCell id="zXVIBMq-GNmkxpPJvBTb-17" value="&lt;div style=&quot;color: rgb(0, 0, 0); font-family: Menlo, Monaco, &amp;quot;Courier New&amp;quot;, monospace; font-weight: normal; font-size: 12px; line-height: 18px;&quot;&gt;&lt;div style=&quot;&quot;&gt;&lt;span style=&quot;color: rgb(0, 0, 0);&quot;&gt;h[2]&amp;nbsp;&lt;/span&gt;&lt;span style=&quot;color: rgb(255, 0, 0);&quot;&gt;&amp;lt;--&lt;/span&gt;&lt;span style=&quot;color: rgb(0, 0, 0);&quot;&gt; a &lt;/span&gt;&lt;span style=&quot;color: rgb(255, 0, 0);&quot;&gt;/&lt;/span&gt;&lt;span style=&quot;color: rgb(0, 0, 0);&quot;&gt; b;&lt;/span&gt;&lt;/div&gt;&lt;div style=&quot;&quot;&gt;&lt;span style=&quot;color: rgb(0, 0, 0);&quot;&gt;h[3]&amp;nbsp;&lt;/span&gt;&lt;span style=&quot;color: rgb(255, 0, 0);&quot;&gt;&amp;lt;--&lt;/span&gt;&lt;span style=&quot;color: rgb(0, 0, 0);&quot;&gt; a &lt;/span&gt;&lt;span style=&quot;color: rgb(255, 0, 0);&quot;&gt;+&lt;/span&gt;&lt;span style=&quot;color: rgb(0, 0, 0);&quot;&gt; b;&lt;/span&gt;&lt;/div&gt;&lt;/div&gt;" style="text;whiteSpace=wrap;html=1;align=center;verticalAlign=middle;" parent="zXVIBMq-GNmkxpPJvBTb-1" vertex="1">
          <mxGeometry x="190" y="340" width="120" height="50" as="geometry" />
        </mxCell>
        <mxCell id="zXVIBMq-GNmkxpPJvBTb-18" value="&lt;div style=&quot;color: rgb(0, 0, 0); font-family: Menlo, Monaco, &amp;quot;Courier New&amp;quot;, monospace; font-weight: normal; font-size: 12px; line-height: 18px;&quot;&gt;&lt;div style=&quot;&quot;&gt;&lt;span style=&quot;color: rgb(0, 0, 0);&quot;&gt;h[2]&amp;nbsp;&lt;/span&gt;&lt;span style=&quot;color: rgb(255, 0, 0);&quot;&gt;*&lt;/span&gt;&lt;span style=&quot;color: rgb(0, 0, 0);&quot;&gt; b &lt;/span&gt;&lt;span style=&quot;color: rgb(255, 0, 0);&quot;&gt;===&lt;/span&gt;&lt;span style=&quot;color: rgb(0, 0, 0);&quot;&gt; a;&lt;/span&gt;&lt;/div&gt;&lt;div style=&quot;&quot;&gt;&lt;span style=&quot;color: rgb(0, 0, 0);&quot;&gt;h[3]&amp;nbsp;&lt;/span&gt;&lt;span style=&quot;color: rgb(255, 0, 0);&quot;&gt;===&lt;/span&gt;&lt;span style=&quot;color: rgb(0, 0, 0);&quot;&gt; a &lt;/span&gt;&lt;span style=&quot;color: rgb(255, 0, 0);&quot;&gt;+&lt;/span&gt;&lt;span style=&quot;color: rgb(0, 0, 0);&quot;&gt; b;&lt;/span&gt;&lt;/div&gt;&lt;/div&gt;" style="text;whiteSpace=wrap;html=1;align=center;verticalAlign=middle;" parent="zXVIBMq-GNmkxpPJvBTb-1" vertex="1">
          <mxGeometry x="450" y="450" width="120" height="50" as="geometry" />
        </mxCell>
        <mxCell id="Fhe0EUWzFvp21NYp1h6w-1" value="h" style="whiteSpace=wrap;html=1;fillColor=#a0522d;fontColor=#ffffff;strokeColor=#6D1F00;" vertex="1" parent="zXVIBMq-GNmkxpPJvBTb-1">
          <mxGeometry x="525" y="350" width="40" height="20" as="geometry" />
        </mxCell>
        <mxCell id="Fhe0EUWzFvp21NYp1h6w-2" value="a=h[0]" style="whiteSpace=wrap;html=1;fillColor=#ffcc99;strokeColor=#36393d;" vertex="1" parent="zXVIBMq-GNmkxpPJvBTb-1">
          <mxGeometry x="525" y="370" width="40" height="20" as="geometry" />
        </mxCell>
        <mxCell id="Fhe0EUWzFvp21NYp1h6w-4" value="b=h[1]" style="whiteSpace=wrap;html=1;fillColor=#ffcc99;strokeColor=#36393d;" vertex="1" parent="zXVIBMq-GNmkxpPJvBTb-1">
          <mxGeometry x="525" y="390" width="40" height="20" as="geometry" />
        </mxCell>
        <mxCell id="Fhe0EUWzFvp21NYp1h6w-5" value="h[2]" style="whiteSpace=wrap;html=1;fillColor=#ffcc99;strokeColor=#36393d;" vertex="1" parent="zXVIBMq-GNmkxpPJvBTb-1">
          <mxGeometry x="525" y="410" width="40" height="20" as="geometry" />
        </mxCell>
        <mxCell id="Fhe0EUWzFvp21NYp1h6w-13" style="rounded=0;orthogonalLoop=1;jettySize=auto;html=1;startArrow=classic;startFill=1;endArrow=classic;endFill=1;" edge="1" parent="zXVIBMq-GNmkxpPJvBTb-1" source="Fhe0EUWzFvp21NYp1h6w-6" target="Fhe0EUWzFvp21NYp1h6w-10">
          <mxGeometry relative="1" as="geometry" />
        </mxCell>
        <mxCell id="Fhe0EUWzFvp21NYp1h6w-6" value="h[3]" style="whiteSpace=wrap;html=1;fillColor=#ffcc99;strokeColor=#36393d;" vertex="1" parent="zXVIBMq-GNmkxpPJvBTb-1">
          <mxGeometry x="525" y="430" width="40" height="20" as="geometry" />
        </mxCell>
        <mxCell id="Fhe0EUWzFvp21NYp1h6w-7" value="I/O" style="whiteSpace=wrap;html=1;fillColor=#76608a;fontColor=#ffffff;strokeColor=#432D57;" vertex="1" parent="zXVIBMq-GNmkxpPJvBTb-1">
          <mxGeometry x="455" y="350" width="40" height="20" as="geometry" />
        </mxCell>
        <mxCell id="Fhe0EUWzFvp21NYp1h6w-11" style="edgeStyle=orthogonalEdgeStyle;rounded=0;orthogonalLoop=1;jettySize=auto;html=1;startArrow=classic;startFill=1;endArrow=classic;endFill=1;" edge="1" parent="zXVIBMq-GNmkxpPJvBTb-1" source="Fhe0EUWzFvp21NYp1h6w-8" target="Fhe0EUWzFvp21NYp1h6w-2">
          <mxGeometry relative="1" as="geometry" />
        </mxCell>
        <mxCell id="Fhe0EUWzFvp21NYp1h6w-8" value="a" style="whiteSpace=wrap;html=1;fillColor=#d0cee2;strokeColor=#56517e;" vertex="1" parent="zXVIBMq-GNmkxpPJvBTb-1">
          <mxGeometry x="455" y="370" width="40" height="20" as="geometry" />
        </mxCell>
        <mxCell id="Fhe0EUWzFvp21NYp1h6w-12" style="edgeStyle=orthogonalEdgeStyle;rounded=0;orthogonalLoop=1;jettySize=auto;html=1;startArrow=classic;startFill=1;endArrow=classic;endFill=1;" edge="1" parent="zXVIBMq-GNmkxpPJvBTb-1" source="Fhe0EUWzFvp21NYp1h6w-9" target="Fhe0EUWzFvp21NYp1h6w-4">
          <mxGeometry relative="1" as="geometry" />
        </mxCell>
        <mxCell id="Fhe0EUWzFvp21NYp1h6w-9" value="b" style="whiteSpace=wrap;html=1;fillColor=#d0cee2;strokeColor=#56517e;" vertex="1" parent="zXVIBMq-GNmkxpPJvBTb-1">
          <mxGeometry x="455" y="390" width="40" height="20" as="geometry" />
        </mxCell>
        <mxCell id="Fhe0EUWzFvp21NYp1h6w-10" value="o" style="whiteSpace=wrap;html=1;fillColor=#d0cee2;strokeColor=#56517e;" vertex="1" parent="zXVIBMq-GNmkxpPJvBTb-1">
          <mxGeometry x="455" y="410" width="40" height="20" as="geometry" />
        </mxCell>
      </root>
    </mxGraphModel>
  </diagram>
</mxfile>
